<?xml version="1.0" standalone="no"?>
<!DOCTYPE svg PUBLIC "-//W3C//DTD SVG 1.1//EN" "http://www.w3.org/Graphics/SVG/1.1/DTD/svg11.dtd" >
<svg xmlns="http://www.w3.org/2000/svg">
<metadata>Generated by IcoMoon</metadata>
<defs>
<font id="icomoon" horiz-adv-x="1024">
<font-face units-per-em="1024" ascent="960" descent="-64" />
<missing-glyph horiz-adv-x="1024" />
<glyph unicode="&#x20;" horiz-adv-x="512" d="" />
<glyph unicode="&#xe900;" glyph-name="alarm" d="M927.289 157.81c-65.081 48.868-102.4 123.563-102.4 204.857v170.667c0 142.962-96.37 263.851-227.556 301.056v40.277c0 47.047-38.286 85.333-85.333 85.333s-85.333-38.286-85.333-85.333v-40.277c-131.186-37.262-227.556-158.094-227.556-301.056v-170.667c0-81.294-37.319-155.932-102.4-204.857-9.785-7.339-13.767-20.139-9.899-31.744s14.734-19.456 26.965-19.456h258.844c-1.877-9.33-2.901-18.83-2.901-28.444 0-78.393 63.829-142.222 142.222-142.222s142.222 63.829 142.222 142.222c0 9.557-0.967 19.115-2.844 28.444h258.844c12.231 0 23.097 7.851 26.965 19.456s-0.114 24.405-9.899 31.744h0.057zM483.556 874.667c0 15.701 12.743 28.444 28.444 28.444s28.444-12.743 28.444-28.444v-29.753c-9.387 0.853-18.83 1.308-28.444 1.308s-19.058-0.455-28.444-1.308v29.753zM597.333 78.222c0-47.047-38.286-85.333-85.333-85.333s-85.333 38.286-85.333 85.333c0 9.728 1.707 19.342 4.892 28.444h160.882c3.186-9.102 4.892-18.716 4.892-28.444zM184.434 163.556c14.507 17.579 27.136 36.75 37.49 56.946 22.642 44.26 34.076 92.103 34.076 142.165v170.667c0 141.141 114.859 256 256 256s256-114.859 256-256v-170.667c0-50.062 11.492-97.906 34.076-142.165 10.354-20.252 22.983-39.367 37.49-56.946h-655.132z" />
<glyph unicode="&#xe901;" glyph-name="bookmark" d="M835.368-64c-7.707 0-15.252 3.341-20.48 9.432l-302.888 353.388-302.888-353.388c-7.33-8.569-19.24-11.641-29.804-7.761s-17.624 14.013-17.624 25.277v970.105c0 14.875 12.072 26.947 26.947 26.947h646.737c14.875 0 26.947-12.072 26.947-26.947v-970.105c0-11.264-7.006-21.342-17.624-25.277-3.072-1.132-6.198-1.671-9.324-1.671v0zM512 367.158c7.869 0 15.36-3.449 20.48-9.432l275.941-321.967v870.292h-592.842v-870.292l275.941 321.967c5.12 5.982 12.611 9.432 20.48 9.432z" />
<glyph unicode="&#xe902;" glyph-name="chevron-dx" d="M344.283-17.408l-103.424 103.424 361.984 361.984-361.984 362.057 103.424 103.424 465.408-465.481z" />
<glyph unicode="&#xe903;" glyph-name="chevron-sx" d="M679.717-17.408l-465.481 465.408 465.481 465.481 103.424-103.424-362.057-362.057 362.057-361.984z" />
<glyph unicode="&#xe904;" glyph-name="close" d="M567.631 448.059l444.731 444.731c15.36 15.36 15.36 40.33 0 55.69s-40.33 15.36-55.69 0l-444.731-444.731-444.731 444.731c-15.36 15.36-40.33 15.36-55.69 0s-15.36-40.33 0-55.69l444.731-444.731-444.731-444.731c-15.36-15.36-15.36-40.33 0-55.69 7.719-7.719 17.802-11.5 27.884-11.5s20.165 3.86 27.884 11.5l444.731 444.731 444.731-444.731c7.719-7.719 17.802-11.5 27.884-11.5s20.165 3.86 27.884 11.5c15.36 15.36 15.36 40.33 0 55.69l-444.889 444.731z" />
<glyph unicode="&#xe905;" glyph-name="equalizer" horiz-adv-x="973" d="M128-64c-14.131 0-25.6 11.469-25.6 25.6v409.6c0 14.131 11.469 25.6 25.6 25.6s25.6-11.469 25.6-25.6v-409.6c0-14.131-11.469-25.6-25.6-25.6zM128 652.8c-14.131 0-25.6 11.469-25.6 25.6v256c0 14.131 11.469 25.6 25.6 25.6s25.6-11.469 25.6-25.6v-256c0-14.131-11.469-25.6-25.6-25.6zM179.2 448h-102.4c-42.342 0-76.8 34.458-76.8 76.8s34.458 76.8 76.8 76.8h102.4c42.342 0 76.8-34.458 76.8-76.8s-34.458-76.8-76.8-76.8zM76.8 550.4c-14.131 0-25.6-11.469-25.6-25.6s11.469-25.6 25.6-25.6h102.4c14.131 0 25.6 11.469 25.6 25.6s-11.469 25.6-25.6 25.6h-102.4zM486.4-64c-14.131 0-25.6 11.469-25.6 25.6v204.8c0 14.131 11.469 25.6 25.6 25.6s25.6-11.469 25.6-25.6v-204.8c0-14.131-11.469-25.6-25.6-25.6zM486.4 448c-14.131 0-25.6 11.469-25.6 25.6v460.8c0 14.131 11.469 25.6 25.6 25.6s25.6-11.469 25.6-25.6v-460.8c0-14.131-11.469-25.6-25.6-25.6zM537.6 243.2h-102.4c-42.342 0-76.8 34.458-76.8 76.8s34.458 76.8 76.8 76.8h102.4c42.342 0 76.8-34.458 76.8-76.8s-34.458-76.8-76.8-76.8zM435.2 345.6c-14.131 0-25.6-11.469-25.6-25.6s11.469-25.6 25.6-25.6h102.4c14.131 0 25.6 11.469 25.6 25.6s-11.469 25.6-25.6 25.6h-102.4zM844.8-64c-14.131 0-25.6 11.469-25.6 25.6v512c0 14.131 11.469 25.6 25.6 25.6s25.6-11.469 25.6-25.6v-512c0-14.131-11.469-25.6-25.6-25.6zM844.8 755.2c-14.131 0-25.6 11.469-25.6 25.6v153.6c0 14.131 11.469 25.6 25.6 25.6s25.6-11.469 25.6-25.6v-153.6c0-14.131-11.469-25.6-25.6-25.6zM896 550.4h-102.4c-42.342 0-76.8 34.458-76.8 76.8s34.458 76.8 76.8 76.8h102.4c42.342 0 76.8-34.458 76.8-76.8s-34.458-76.8-76.8-76.8zM793.6 652.8c-14.131 0-25.6-11.469-25.6-25.6s11.469-25.6 25.6-25.6h102.4c14.131 0 25.6 11.469 25.6 25.6s-11.469 25.6-25.6 25.6h-102.4z" />
<glyph unicode="&#xe906;" glyph-name="fb" d="M407.287 719.369v-134.229h-151.211v-182.016h151.211v-467.115h181.077v467.115h173.397l0.085 182.016h-173.568v116.224c0 52.651 14.080 88.576 86.955 88.576l92.843 0.085v169.728l-135.339 0.256c-133.803 0-225.451-84.821-225.451-240.64z" />
<glyph unicode="&#xe907;" glyph-name="geoloc" d="M512 918.109c-173.714 0-320-144.291-320-321.164 0-93.091 36.571-246.691 91.429-372.364 41.143-93.091 118.857-251.345 228.571-251.345s192 158.255 228.571 251.345c50.286 125.673 91.429 279.273 91.429 372.364 0 176.873-146.286 321.164-320 321.164zM512 880.873c155.429 0 283.429-125.673 283.429-283.927 0-74.473-32-218.764-86.857-358.4-59.429-144.291-132.571-228.073-196.571-228.073s-137.143 83.782-196.571 228.073c-54.857 134.982-86.857 283.927-86.857 358.4 0 158.255 128 283.927 283.429 283.927zM512 773.818c-96 0-173.714-79.127-173.714-176.873s77.714-176.873 173.714-176.873c96 0 173.714 79.127 173.714 176.873s-77.714 176.873-173.714 176.873zM512 457.309c-77.714 0-137.143 60.509-137.143 139.636s64 139.636 137.143 139.636c73.143 0 137.143-60.509 137.143-139.636s-59.429-139.636-137.143-139.636z" />
<glyph unicode="&#xe908;" glyph-name="in" d="M977.501-17.464v373.667c0 183.389-37.702 324.515-241.757 324.515-98.025 0-163.747-56.413-190.743-110.033h-2.607v93.091h-193.257v-681.239h201.263v337.082c0 88.809 16.198 174.825 120.925 174.825 103.331 0 104.82-101.562 104.82-180.596v-331.311h201.356zM104.774 959.991c-57.903 0-104.727-46.918-104.727-104.727s46.825-104.727 104.727-104.727c57.716 0 104.727 46.918 104.727 104.727s-47.011 104.727-104.727 104.727zM0-17.455h209.455v628.364h-209.455z" />
<glyph unicode="&#xe909;" glyph-name="langENG" d="M512 960c136.755 0 265.318-53.248 361.984-149.965 96.768-96.717 150.016-225.28 150.016-362.035 0-1.741 0-3.43 0-5.171-16.128 16.486-33.894 31.386-52.89 44.544-3.482 40.55-12.186 79.616-25.549 116.48 0-0.205 0.051-0.358 0.154-0.563 4.147-20.685-11.008-37.222-17.459-44.288-7.987-8.704-18.944-18.688-33.434-31.693-18.688 7.066-38.093 12.646-58.163 16.486 5.786 5.171 11.264 10.035 16.23 14.49 13.67 12.186 27.597 24.627 35.891 33.229-9.626 4.045-23.296 8.653-31.181 11.366-58.982 20.070-77.619 74.138-93.952 121.856-10.803 31.437-21.043 61.184-40.755 74.65-10.701 7.27-19.814 8.755-31.078 8.755-5.018 0-10.394-0.307-16.077-0.666-6.81-0.41-13.875-0.819-21.709-0.819-19.61 0-46.592 2.355-80.998 20.685-29.133 15.565-49.664 22.17-68.71 22.17-23.859 0-50.534-10.906-89.19-36.403-70.554-46.49-88.269-134.707-64.256-189.747 14.49-33.178 26.624-37.581 37.376-38.195l4.915-0.102 7.475 0.307c5.222 0.358 10.957 1.075 16.845 1.741 11.366 1.331 24.269 2.867 38.502 2.867 19.251 0 37.171-2.867 54.682-8.704 32.87-11.008 57.293-37.683 74.035-81.203-15.36-9.165-29.901-19.405-43.674-30.669-11.315 35.891-26.675 56.627-46.746 63.334-12.339 4.096-24.576 6.042-38.451 6.042-11.213 0-22.016-1.28-32.512-2.509-10.342-1.229-20.173-2.406-30.259-2.406v0l-7.987 0.307c-36.506 2.662-61.747 24.166-81.203 68.71-17.664 40.448-19.251 88.73-4.454 135.885 15.155 48.384 46.182 89.958 87.398 117.146 47.667 31.437 82.79 44.851 117.402 44.851 27.955 0 55.654-8.448 92.774-28.16 24.269-12.954 42.394-14.694 56.883-14.694 6.298 0 12.595 0.358 18.637 0.717 6.246 0.41 12.698 0.768 19.2 0.768 11.878 0 26.675-1.126 43.059-8.243-66.099 36.659-142.029 57.6-222.874 57.6-235.366 0-430.029-177.357-457.472-405.453 9.062-1.587 19.712-3.584 30.669-6.042 47.206-10.65 71.219-22.938 80.179-41.165 12.8-25.958-4.454-50.432-18.33-70.144-5.069-7.27-13.517-19.2-14.336-24.166 11.622-49.51-13.261-105.984-26.675-131.533 71.936-133.632 208.026-227.891 366.694-241.408 13.107-18.995 28.006-36.71 44.493-52.838h-5.12c-136.755 0-265.318 53.248-362.035 150.016-96.717 96.666-149.965 225.229-149.965 361.984s53.248 265.318 149.965 362.035c96.717 96.717 225.28 149.965 362.035 149.965zM51.251 451.942v-3.891c0-53.76 9.267-105.421 26.266-153.395 5.888 18.842 9.318 39.219 5.274 55.91-5.99 24.576 9.779 47.002 22.426 64.973 3.635 5.12 9.114 12.902 11.827 18.176-5.939 3.123-19.405 8.653-48.179 14.797-6.144 1.28-12.083 2.458-17.613 3.43v0zM756.019 838.758c30.72-23.347 43.622-60.877 56.115-97.229 14.387-41.882 26.778-78.029 62.003-90.010 32.768-11.162 57.856-19.712 67.789-37.683-36.25 93.491-102.042 172.339-185.907 224.922zM675.021 53.197h-163.021v292.403h163.021v-30.208h-129.024v-94.208h121.19v-30.003h-121.19v-107.622h129.024v-30.362zM968.192 53.197h-38.81l-159.795 245.402h-1.587c2.099-28.774 3.174-55.194 3.174-79.206v-166.195h-31.386v292.403h38.4l159.386-244.378h1.587c-0.307 3.584-0.922 15.206-1.792 34.714s-1.28 33.485-1.024 41.882v167.782h31.795v-292.403zM975.923 45.517h-50.637l-2.304 3.482-145.613 223.642c1.024-19.149 1.536-36.966 1.536-53.248v-173.875h-46.797v307.763h50.227l147.814-226.611c-0.154 2.765-0.307 5.683-0.41 8.858-1.024 21.299-1.28 34.406-1.075 42.496v175.258h47.206v-307.763zM933.53 60.877h26.931v276.992h-16.384v-160.102c-0.307-7.834 0-20.941 0.973-41.574 0.922-19.354 1.485-30.874 1.792-34.406l0.717-8.346h-12.493l-3.891 3.482-157.082 240.896h-26.573v-276.992h15.974v158.515c0 23.245-1.075 49.715-3.174 78.643l-0.614 8.243h12.39l3.891-3.482 157.542-241.869zM682.701 45.517h-178.381v307.763h178.381v-45.619h-129.024v-78.797h121.19v-45.414h-121.19v-92.211h129.024v-45.722zM519.68 60.877h147.61v15.002h-129.024v122.982h121.19v14.643h-121.19v109.619h129.024v14.797h-147.61v-277.043z" />
<glyph unicode="&#xe90a;" glyph-name="langIT" d="M512 960c136.755 0 265.318-53.248 361.984-149.965 96.768-96.717 150.016-225.28 150.016-362.035 0-1.741 0-3.43 0-5.171-16.128 16.486-33.894 31.386-52.89 44.544-3.482 40.55-12.186 79.616-25.549 116.48 0-0.205 0.051-0.358 0.154-0.563 4.147-20.685-11.008-37.222-17.459-44.288-7.987-8.704-18.944-18.688-33.434-31.693-18.688 7.066-38.093 12.646-58.163 16.486 5.786 5.171 11.264 10.035 16.23 14.49 13.67 12.186 27.597 24.627 35.891 33.229-9.626 4.045-23.296 8.653-31.181 11.366-58.982 20.070-77.619 74.138-93.952 121.856-10.803 31.437-21.043 61.184-40.755 74.65-10.701 7.27-19.814 8.755-31.078 8.755-5.018 0-10.394-0.307-16.077-0.666-6.81-0.41-13.875-0.819-21.709-0.819-19.61 0-46.592 2.355-80.998 20.685-29.133 15.565-49.664 22.17-68.71 22.17-23.859 0-50.534-10.906-89.19-36.403-70.554-46.49-88.269-134.707-64.256-189.747 14.49-33.178 26.624-37.581 37.376-38.195l4.915-0.102 7.475 0.307c5.222 0.358 10.957 1.075 16.845 1.741 11.366 1.331 24.269 2.867 38.502 2.867 19.251 0 37.171-2.867 54.682-8.704 32.87-11.008 57.293-37.683 74.035-81.203-15.36-9.165-29.901-19.405-43.674-30.669-11.315 35.891-26.675 56.627-46.746 63.334-12.339 4.096-24.576 6.042-38.451 6.042-11.213 0-22.016-1.28-32.512-2.509-10.342-1.229-20.173-2.406-30.259-2.406v0l-7.987 0.307c-36.506 2.662-61.747 24.166-81.203 68.71-17.664 40.448-19.251 88.73-4.454 135.885 15.155 48.384 46.182 89.958 87.398 117.146 47.667 31.437 82.79 44.851 117.402 44.851 27.955 0 55.654-8.448 92.774-28.16 24.269-12.954 42.394-14.694 56.883-14.694 6.298 0 12.595 0.358 18.637 0.717 6.246 0.41 12.698 0.768 19.2 0.768 11.878 0 26.675-1.126 43.059-8.243-66.099 36.659-142.029 57.6-222.874 57.6-235.366 0-430.029-177.357-457.472-405.453 9.062-1.587 19.712-3.584 30.669-6.042 47.206-10.65 71.219-22.938 80.179-41.165 12.8-25.958-4.454-50.432-18.33-70.144-5.069-7.27-13.517-19.2-14.336-24.166 11.622-49.51-13.261-105.984-26.675-131.533 71.936-133.632 208.026-227.891 366.694-241.408 13.107-18.995 28.006-36.71 44.493-52.838h-5.12c-136.755 0-265.318 53.248-362.035 150.016-96.717 96.666-149.965 225.229-149.965 361.984s53.248 265.318 149.965 362.035c96.717 96.717 225.28 149.965 362.035 149.965zM51.251 451.942v-3.891c0-53.76 9.267-105.421 26.266-153.395 5.888 18.842 9.318 39.219 5.274 55.91-5.99 24.576 9.779 47.002 22.426 64.973 3.635 5.12 9.114 12.902 11.827 18.176-5.939 3.123-19.405 8.653-48.179 14.797-6.144 1.28-12.083 2.458-17.613 3.43v0zM756.019 838.758c30.72-23.347 43.622-60.877 56.115-97.229 14.387-41.882 26.778-78.029 62.003-90.010 32.768-11.162 57.856-19.712 67.789-37.683-36.25 93.491-102.042 172.339-185.907 224.922zM614.4 53.197v292.403h33.997v-292.403h-33.997zM847.872 53.197h-33.997v262.195h-92.621v30.208h219.187v-30.208h-92.57v-262.195zM855.552 45.517h-49.408v262.195h-92.621v45.568h234.598v-45.619h-92.57v-262.144zM821.555 60.877h18.586v262.195h92.621v14.848h-203.776v-14.797h92.621v-262.246zM656.077 45.517h-49.357v307.763h49.408v-307.763zM622.080 60.877h18.586v276.992h-18.586v-276.992z" />
<glyph unicode="&#xe90b;" glyph-name="magnifier" d="M966.093-21.094l-304.282 331.981c68.557 71.731 106.24 165.53 106.24 265.114 0 102.554-39.936 199.014-112.486 271.514s-168.96 112.486-271.514 112.486c-102.554 0-199.014-39.936-271.514-112.486s-112.486-168.96-112.486-271.514c0-102.554 39.936-199.014 112.486-271.514s168.96-112.486 271.514-112.486c88.371 0 172.134 29.645 240.026 84.224l304.282-331.93c5.069-5.53 11.93-8.294 18.893-8.294 6.195 0 12.39 2.202 17.306 6.707 10.445 9.574 11.11 25.754 1.587 36.147l-0.051 0.051zM51.2 576c0 183.501 149.299 332.8 332.8 332.8s332.8-149.299 332.8-332.8c0-183.501-149.299-332.8-332.8-332.8s-332.8 149.299-332.8 332.8z" />
<glyph unicode="&#xe90c;" glyph-name="mail" d="M943.158 771.368h-862.316c-44.571 0-80.842-36.271-80.842-80.842v-485.053c0-44.571 36.271-80.842 80.842-80.842h862.316c44.571 0 80.842 36.271 80.842 80.842v485.053c0 44.571-36.271 80.842-80.842 80.842zM943.158 717.474c1.617 0 3.126-0.162 4.689-0.431l-405.935-270.605c-15.629-10.402-44.14-10.402-59.769 0l-405.935 270.605c1.509 0.269 3.072 0.431 4.689 0.431h862.262zM943.158 178.526h-862.316c-14.875 0-26.947 12.072-26.947 26.947v461.662l398.336-265.539c16.761-11.156 38.265-16.761 59.769-16.761s43.008 5.605 59.769 16.761l398.336 265.539v-461.662c0-14.875-12.072-26.947-26.947-26.947z" />
<glyph unicode="&#xe90d;" glyph-name="menu" d="M992 736h-960c-17.664 0-32 14.336-32 32s14.336 32 32 32h960c17.664 0 32-14.336 32-32s-14.336-32-32-32zM992 416h-960c-17.664 0-32 14.336-32 32s14.336 32 32 32h960c17.664 0 32-14.336 32-32s-14.336-32-32-32zM992 96h-960c-17.664 0-32 14.336-32 32s14.336 32 32 32h960c17.664 0 32-14.336 32-32s-14.336-32-32-32z" />
<glyph unicode="&#xe90e;" glyph-name="share" d="M819.2 345.6c-70.861 0-133.427-36.198-170.24-91.085l-250.982 125.491c7.526 21.299 11.622 44.134 11.622 67.994s-4.096 46.694-11.622 67.994l250.982 125.491c36.762-54.886 99.379-91.085 170.24-91.085 112.947 0 204.8 91.853 204.8 204.8s-91.853 204.8-204.8 204.8c-112.947 0-204.8-91.853-204.8-204.8 0-23.808 4.096-46.694 11.622-67.942l-250.982-125.491c-36.762 54.886-99.379 91.034-170.24 91.034-112.947 0-204.8-91.853-204.8-204.8s91.853-204.8 204.8-204.8c70.861 0 133.427 36.198 170.24 91.085l250.982-125.491c-7.526-21.299-11.622-44.134-11.622-67.994 0-112.947 91.853-204.8 204.8-204.8s204.8 91.853 204.8 204.8c0 112.947-91.853 204.8-204.8 204.8zM819.2 908.8c84.685 0 153.6-68.915 153.6-153.6s-68.915-153.6-153.6-153.6c-84.685 0-153.6 68.915-153.6 153.6s68.915 153.6 153.6 153.6zM204.8 294.4c-84.685 0-153.6 68.915-153.6 153.6s68.915 153.6 153.6 153.6c84.685 0 153.6-68.915 153.6-153.6s-68.915-153.6-153.6-153.6zM819.2-12.8c-84.685 0-153.6 68.915-153.6 153.6s68.915 153.6 153.6 153.6c84.685 0 153.6-68.915 153.6-153.6s-68.915-153.6-153.6-153.6z" />
<glyph unicode="&#xe90f;" glyph-name="tw" d="M1023.13 769.451c1.28 1.877 1.195 4.352-0.341 6.059-1.451 1.792-3.925 2.389-5.888 1.451-30.72-13.568-62.891-23.296-96-29.099 35.157 26.453 61.355 63.061 74.923 105.045 0.597 1.963-0.085 4.181-1.707 5.461-1.621 1.365-4.011 1.536-5.717 0.427-39.765-23.467-82.688-40.021-127.829-49.152-40.021 41.387-95.829 65.024-153.6 65.024-117.419 0-213.077-95.317-213.077-212.565 0-14.165 1.365-28.16 4.181-41.813-162.816 9.984-315.051 87.979-418.475 214.528-1.024 1.28-2.645 2.048-4.267 1.877-1.707-0.171-3.243-1.109-4.011-2.475-18.944-32.341-28.928-69.291-28.928-106.923 0-65.109 29.696-126.123 80.213-166.229-25.941 3.072-51.371 11.264-74.325 23.979-1.536 0.853-3.499 0.853-4.949-0.085-1.621-0.853-2.56-2.475-2.645-4.267v-2.731c0-93.525 61.867-175.787 149.76-203.008-23.125-3.755-47.189-3.499-70.827 1.024-1.707 0.341-3.499-0.256-4.779-1.621-1.109-1.365-1.536-3.243-0.939-4.949 26.283-82.091 99.669-139.691 184.917-146.859-71.083-52.053-155.307-79.445-244.139-79.445-16.384 0-32.853 0.939-48.981 2.901-2.304 0.256-4.608-1.109-5.376-3.328s0-4.693 2.048-5.973c96.171-61.525 207.36-94.037 321.621-94.037 373.589 0 596.907 302.677 596.907 595.371 0 8.192-0.171 16.299-0.512 24.405 40.277 29.355 74.837 65.365 102.741 107.008z" />
<glyph unicode="&#xe910;" glyph-name="user" d="M512-44.308c-271.478 0-492.308 220.83-492.308 492.308s220.83 492.308 492.308 492.308 492.308-220.83 492.308-492.308-220.83-492.308-492.308-492.308zM512 900.923c-249.738 0-452.923-203.185-452.923-452.923s203.185-452.923 452.923-452.923c249.738 0 452.923 203.185 452.923 452.923s-203.185 452.923-452.923 452.923zM512 481.477c-75.461 0-136.822 63.173-136.822 140.8s61.361 140.8 136.822 140.8c75.461 0 136.822-63.173 136.822-140.8s-61.361-140.8-136.822-140.8zM512 737.477c-61.716 0-111.931-51.673-111.931-115.2s50.215-115.2 111.931-115.2c61.676 0 111.931 51.673 111.931 115.2s-50.255 115.2-111.931 115.2zM512 475.569c-78.69 0-142.73 65.812-142.73 146.708s64.039 146.708 142.73 146.708 142.73-65.812 142.73-146.708c0-80.896-64.039-146.708-142.73-146.708zM512 757.169c-72.192 0-130.914-60.534-130.914-134.892s58.722-134.892 130.914-134.892c72.192 0 130.875 60.534 130.875 134.892s-58.683 134.892-130.875 134.892zM512 501.169c-64.985 0-117.839 54.311-117.839 121.108s52.854 121.108 117.839 121.108c64.945 0 117.839-54.311 117.839-121.108s-52.894-121.108-117.839-121.108zM512 731.569c-58.447 0-106.023-49.034-106.023-109.292s47.577-109.292 106.023-109.292 105.984 49.034 105.984 109.292-47.537 109.292-105.984 109.292zM711.010 211.692h-398.021c-20.559 0-37.297 17.25-37.297 38.4 0 1.772 0.354 43.166 30.444 84.519 17.526 24.025 41.551 43.205 71.365 56.793 36.431 16.62 81.684 25.088 134.498 25.088s98.068-8.468 134.459-25.127c29.854-13.666 53.839-32.768 71.365-56.793 30.129-41.354 30.484-82.708 30.484-84.48 0-21.15-16.738-38.4-37.297-38.4zM512 390.892c-86.725 0-150.725-24.379-185.108-70.538-25.758-34.58-26.309-69.947-26.309-70.302 0-7.050 5.553-12.721 12.406-12.721h397.982c6.853 0 12.406 5.711 12.406 12.761 0 0.315-0.591 35.682-26.348 70.262-34.343 46.159-98.343 70.538-185.029 70.538zM711.010 205.785h-398.021c-23.828 0-43.205 19.889-43.205 44.308 0 1.812 0.354 45.095 31.586 87.946 18.196 24.97 42.969 44.702 73.689 58.722 37.218 17.014 83.298 25.679 136.94 25.679s99.722-8.665 136.94-25.639c30.72-14.060 55.532-33.831 73.689-58.683 31.232-42.929 31.626-86.174 31.626-87.985-0.039-24.497-19.417-44.347-43.244-44.347zM512 410.585c-51.948 0-96.335-8.271-132.017-24.576-28.869-13.154-52.106-31.665-69.081-54.942-28.987-39.778-29.342-79.36-29.342-81.014 0-17.92 14.1-32.453 31.39-32.453h397.982c17.29 0 31.39 14.533 31.39 32.453 0 1.654-0.315 41.236-29.302 81.054-16.975 23.198-40.212 41.708-69.081 54.902-35.564 16.305-79.99 24.576-131.938 24.576zM711.010 231.385h-398.021c-10.122 0-18.314 8.389-18.314 18.668 0.118 4.096 1.851 39.385 27.49 73.846 35.525 47.695 101.179 72.901 189.834 72.901s154.27-25.246 189.794-72.94c27.175-36.51 27.53-73.413 27.53-73.807 0.039-10.279-8.192-18.668-18.314-18.668zM512 384.945c-84.795 0-147.141-23.552-180.382-68.135-23.473-31.547-25.049-63.33-25.167-66.875 0-3.663 2.914-6.695 6.538-6.695h397.982c3.584 0 6.498 3.072 6.498 6.853 0 0.276-0.788 34.028-25.167 66.718-33.201 44.623-95.547 68.135-180.303 68.135z" />
<glyph unicode="&#xe911;" glyph-name="youtube" d="M384.043 319.996v320c106.667-53.504 212.651-106.667 320-160.512-107.093-53.333-213.077-106.155-320-159.488zM895.616 818.001c-126.976 13.995-255.488 14.080-383.403 13.995-128 0.085-256.512 0-383.488-13.995-53.589-5.888-98.219-45.568-110.677-99.243-17.835-76.459-18.005-160-18.005-238.763s0-162.219 17.835-238.763c12.459-53.675 57.003-93.355 110.592-99.157 126.976-14.080 255.573-14.080 383.488-14.080 128 0 256.512 0 383.403 14.080 53.675 5.803 98.219 45.483 110.763 99.157 17.835 76.544 17.92 160 17.92 238.763s0.085 162.219-17.749 238.763c-12.459 53.675-57.088 93.355-110.677 99.243z" />
<glyph unicode="&#xe912;" glyph-name="calendar-cross" horiz-adv-x="1142" d="M1056.492 903.111h-142.769v28.444c0 15.701-12.792 28.444-28.554 28.444s-28.554-12.743-28.554-28.444v-28.444h-571.077v28.444c0 15.701-12.792 28.444-28.554 28.444s-28.554-12.743-28.554-28.444v-28.444h-142.769c-47.228 0-85.662-38.286-85.662-85.333v-796.444c0-47.047 38.433-85.333 85.662-85.333h970.831c47.228 0 85.662 38.286 85.662 85.333v796.444c0 47.047-38.433 85.333-85.662 85.333zM85.662 846.222h142.769v-85.333c0-15.701 12.792-28.444 28.554-28.444s28.554 12.743 28.554 28.444v85.333h571.077v-85.333c0-15.701 12.792-28.444 28.554-28.444s28.554 12.743 28.554 28.444v85.333h142.769c15.762 0 28.554-12.743 28.554-28.444v-142.222h-1027.938v142.222c0 15.701 12.792 28.444 28.554 28.444zM1056.492-7.111h-970.831c-15.762 0-28.554 12.743-28.554 28.444v597.333h1027.938v-597.333c0-15.701-12.792-28.444-28.554-28.444zM611.452 305.778l151.107 150.528c11.136 11.093 11.136 29.127 0 40.22s-29.239 11.093-40.375 0l-151.107-150.528-151.107 150.528c-11.136 11.093-29.239 11.093-40.375 0s-11.136-29.127 0-40.22l151.107-150.528-151.107-150.528c-11.136-11.093-11.136-29.127 0-40.22 5.597-5.575 12.906-8.306 20.216-8.306s14.62 2.788 20.216 8.306l151.107 150.528 151.107-150.528c5.597-5.575 12.906-8.306 20.216-8.306s14.62 2.788 20.216 8.306c11.136 11.093 11.136 29.127 0 40.22l-151.221 150.528z" />
<glyph unicode="&#xe913;" glyph-name="clock" d="M874.065 810.065c-96.687 96.687-225.28 149.935-362.065 149.935s-265.324-53.248-362.065-149.935c-96.687-96.687-149.935-225.28-149.935-362.011s53.248-265.324 149.935-362.065c96.687-96.741 225.28-149.935 362.065-149.935s265.324 53.248 362.065 149.935c96.741 96.687 149.935 225.28 149.935 362.065s-53.248 265.324-149.935 362.011zM512-10.105c-252.605 0-458.105 205.501-458.105 458.105s205.501 458.105 458.105 458.105c252.605 0 458.105-205.501 458.105-458.105s-205.501-458.105-458.105-458.105zM815.373 569.263c-7.437 12.881-23.929 17.3-36.81 9.863l-265.162-153.115-206.686 144.707c-12.18 8.515-28.995 5.551-37.511-6.629s-5.551-28.995 6.629-37.511l220.753-154.57c0.054-0.054 0.108-0.054 0.162-0.108 0.431-0.323 0.916-0.593 1.401-0.862 0.108-0.054 0.269-0.162 0.377-0.216 0.485-0.269 0.97-0.539 1.455-0.755 0.108-0.054 0.216-0.108 0.323-0.162 0.539-0.269 1.078-0.485 1.671-0.755 0.323-0.108 0.647-0.269 1.024-0.377 0.269-0.108 0.485-0.162 0.755-0.269 0.377-0.108 0.701-0.216 1.078-0.323 0.216-0.054 0.485-0.108 0.701-0.162 0.377-0.108 0.755-0.162 1.078-0.269 0.269-0.054 0.485-0.108 0.755-0.162 0.323-0.054 0.701-0.108 1.024-0.162s0.647-0.054 0.97-0.108c0.269-0.054 0.593-0.054 0.862-0.108 0.647-0.054 1.24-0.054 1.886-0.054 1.024 0 2.048 0.054 3.072 0.162 0 0 0.054 0 0.054 0 0.97 0.108 1.994 0.323 2.964 0.539 0.054 0 0.162 0.054 0.216 0.054 0.916 0.216 1.832 0.485 2.749 0.862 0.162 0.054 0.269 0.108 0.377 0.162 0.862 0.323 1.725 0.701 2.533 1.132 0.162 0.108 0.323 0.162 0.485 0.269 0.323 0.162 0.593 0.323 0.916 0.485l280.037 161.684c12.881 7.437 17.3 23.929 9.863 36.81v-0.054z" />
<glyph unicode="&#xe914;" glyph-name="threedots" d="M218.792 447.908c0 51.92-42.48 94.4-94.4 94.4s-94.4-42.48-94.4-94.4c0-51.92 42.48-94.4 94.4-94.4s94.4 42.48 94.4 94.4v0zM407.592 447.908c0-51.92 42.48-94.4 94.4-94.4s94.4 42.48 94.4 94.4c0 51.92-42.48 94.4-94.4 94.4s-94.4-42.48-94.4-94.4v0zM785.192 447.908c0-51.92 42.48-94.4 94.4-94.4s94.4 42.48 94.4 94.4c0 51.92-42.48 94.4-94.4 94.4s-94.4-42.48-94.4-94.4v0z" />
<glyph unicode="&#xe915;" glyph-name="calendar" d="M878.976 55.492h-776.619c-18.773 0-34.048 15.275-34.048 34.048v460.885h844.715v-460.885c0-18.773-15.189-34.048-34.048-34.048zM102.357 823.492h170.667v-102.4c0-18.859 15.36-34.133 34.133-34.133 18.944 0 34.219 15.275 34.219 34.133v102.4h298.667v-102.4c0-18.859 15.275-34.133 34.133-34.133 18.773 0 34.133 15.275 34.133 34.133v102.4h170.667c18.859 0 34.048-15.36 34.048-34.133v-170.667h-844.715v170.667c0 18.773 15.275 34.133 34.048 34.133zM878.976 891.759h-170.667v34.133c0 18.773-15.36 34.133-34.133 34.133-18.859 0-34.133-15.36-34.133-34.133v-34.133h-298.667v34.133c0 18.773-15.275 34.133-34.219 34.133-18.773 0-34.133-15.36-34.133-34.133v-34.133h-170.667c-56.405 0-102.315-45.995-102.315-102.4v-699.819c0-56.405 45.909-102.315 102.315-102.315h776.619c56.405 0 102.315 45.909 102.315 102.315v699.819c0 56.405-45.909 102.4-102.315 102.4z" />
<glyph unicode="&#xe916;" glyph-name="arrow-back" horiz-adv-x="1408" d="M73.108 409.95l431.158-431.158c21.019-21.019 55.188-21.019 76.207 0s21.019 55.188 0 76.207l-339.213 339.106h1109.477c29.75 0 53.895 24.145 53.895 53.895s-24.145 53.895-53.895 53.895h-1109.477l339.106 339.213c21.019 21.019 21.019 55.188 0 76.207-10.563 10.563-24.36 15.737-38.050 15.737s-27.594-5.282-38.050-15.845l-431.158-431.158c-21.019-21.019-21.019-55.188 0-76.207v0.108z" />
</font>
</defs>
</svg>
